# xmcd
#
# Track frame offsets:
#	150
#	20725
#	40731
#	51321
#	65802
#	87394
#	99589
#	109339
#	127549
#	140120
#	163871
#
# Disc length: 2373 seconds
#
# Revision: 0
# Processed by: cddbd v1.5.2PL0 Copyright (c) Steve Scherf et al.
# Submitted via: audiograbber 1.83.01
#
DISCID=9e09430b
DTITLE=Bi Al Weekley - Always In it For The Long Haul
DYEAR=2007
DGENRE=Bluegrass
TTITLE0=Stories Of The Road
TTITLE1=Lines On The Highway
TTITLE2=Good To Be Back Home Again
TTITLE3=Reflections Of My Life
TTITLE4=Martha's Roadside Cafe
TTITLE5=Ode To Billie Big Rigger
TTITLE6=Her Love Is With Me Every Mile
TTITLE7=Victim Of A Truck Driver's Life
TTITLE8=Feeling That Everybody Feels
TTITLE9=I Wish I Was Home
TTITLE10=Truck Drivin' Man
EXTD=
EXTT0=
EXTT1=
EXTT2=
EXTT3=
EXTT4=
EXTT5=
EXTT6=
EXTT7=
EXTT8=
EXTT9=
EXTT10=
PLAYORDER=
